# AST/ASF file generated using VICON BodyLanguage
# -----------------------------------------------
:version 1.10
:name VICON
:units
  mass 1.0
  length 0.45
  angle deg
:documentation
   .ast/.asf automatically generated from VICON data using
   VICON BodyBuilder and BodyLanguage model FoxedUp or BRILLIANT.MOD
:root
   order TX TY TZ RX RY RZ
   axis XYZ
   position 0 0 0  
   orientation 0 0 0 
:bonedata
  begin
     id 1 
     name lhipjoint
     direction 0.541323 -0.757556 0.364798 
     length 2.47576 
     axis 0 0 0  XYZ
  end
  begin
     id 2 
     name lfemur
     direction 0.34202 -0.939693 0  
     length 7.46493  
     axis 0 0 20  XYZ
    dof rx ry rz
    limits (-160.0 20.0)
           (-70.0 70.0)
           (-60.0 70.0)
  end
  begin
     id 3 
     name ltibia
     direction 0.34202 -0.939693 0   
     length 7.73805   
     axis 0 0 20   XYZ
    dof rx
    limits (-10.0 170.0)
  end
  begin
     id 4 
     name lfoot
     direction 0.107174 -0.294458 0.949636   
     length 2.25864   
     axis -90 7.62852e-016 20   XYZ
    dof rx rz
    limits (-45.0 90.0)
           (-70.0 20.0)
  end
  begin
     id 5 
     name ltoes
     direction 1.53606e-011 -4.21934e-011 1   
     length 1.12451   
     axis -90 7.62852e-016 20   XYZ
    dof rx
    limits (-90.0 20.0)
  end
  begin
     id 6 
     name rhipjoint
     direction -0.524745 -0.766967 0.36933   
     length 2.44538  
     axis 0 0 0  XYZ 
  end
  begin
     id 7 
     name rfemur
     direction -0.34202 -0.939693 0   
     length 7.61604   
     axis 0 0 -20   XYZ
    dof rx ry rz
    limits (-160.0 20.0)
           (-70.0 70.0)
           (-70.0 60.0)
  end
  begin
     id 8 
     name rtibia
     direction -0.34202 -0.939693 0   
     length 7.61056   
     axis 0 0 -20   XYZ
    dof rx
    limits (-10.0 170.0)
 end
 begin
     id 9 
     name rfoot
     direction -0.12616 -0.346623 0.929482   
     length 2.46372  
     axis -90 -7.62852e-016 -20   XYZ
    dof rx rz
    limits (-45.0 90.0)
           (-20.0 70.0)
  end
  begin
     id 10 
     name rtoes
     direction -1.53531e-011 -4.22004e-011 1   
     length 1.21611   
     axis -90 -7.62852e-016 -20   XYZ
    dof rx
    limits (-90.0 20.0)
  end
  begin
     id 11 
     name lowerback
     direction -0.000778023 0.997293 -0.0735223   
     length 2.06139   
     axis 0 0 0   XYZ
    dof rx ry rz
    limits (-20.0 45.0)
           (-30.0 30.0)
           (-30.0 30.0)
  end
  begin
     id 12 
     name upperback
     direction 0.0222598 0.999722 -0.0078355   
     length 2.06383   
     axis 0 0 0   XYZ
    dof rx ry rz
    limits (-20.0 45.0)
           (-30.0 30.0)
           (-30.0 30.0)
  end
  begin
     id 13 
     name thorax
     direction 0.0219654 0.999405 0.0265994   
     length 2.07163   
     axis 0 0 0   XYZ
    dof rx ry rz
    limits (-20.0 45.0)
           (-30.0 30.0)
           (-30.0 30.0)
  end
  begin
     id 14 
     name lowerneck
     direction 0.0213282 0.988147 0.15202   
     length 1.75969   
     axis 0 0 0   XYZ
    dof rx ry rz
    limits (-20.0 45.0)
           (-30.0 30.0)
           (-30.0 30.0)
  end
  begin
     id 15 
     name upperneck
     direction -0.0546456 0.982624 -0.177379   
     length 1.79244   
     axis 0 0 0   XYZ
    dof rx ry rz
    limits (-20.0 45.0)
           (-30.0 30.0)
           (-30.0 30.0)
  end
  begin
     id 16
     name head
     direction -0.0199987 0.996855 -0.076686  
     length 1.80555  
     axis 0 0 0   XYZ
    dof rx ry rz
    limits (-20.0 45.0)
           (-30.0 30.0)
           (-30.0 30.0)
  end
  begin
     id 17 
     name lclavicle
     direction 0.929565 0.363219 -0.063096  
     length 3.55722  
     axis 0 0 0   XYZ
    dof ry rz
    limits (-20.0 10.0)
           (0.0 20.0)
  end
  begin
     id 18 
     name lhumerus
     direction 1 -4.48993e-011 -2.36203e-027   
     length 4.92785   
     axis 180 -30 -90   XYZ
    dof rx ry rz
    limits (-60.0 90.0)
           (-90.0 90.0)
           (-90.0 90.0)
  end
  begin
     id 19
     name lradius
     direction 1 -4.48947e-011 2.02997e-027   
     length 3.44052   
     axis 180 -30 -90   XYZ
    dof rx
    limits (-10.0 170.0)
  end
  begin
     id 20
     name lwrist
     direction 1 -4.48962e-011 1.45991e-027   
     length 1.72026   
     axis 1.49639e-024 90 90   XYZ
    dof ry
    limits (-180.0 0.0)
 end
  begin
     id 21 
     name lhand
     direction 1 -4.48984e-011 2.91906e-027   
     length 0.654326   
     axis -1.863e-015 90 90   XYZ
    dof rx rz
    limits (-90.0 90.0)
           (-45.0 45.0)
  end
  begin
     id 22 
     name lfingers
     direction 1 -4.48961e-011 5.83968e-027   
     length 0.527534   
     axis -3.72598e-015 90 90   XYZ
    dof rx
    limits (0.0 90.0)
  end
  begin
     id 23
     name lthumb
     direction 0.707107 -6.34963e-011 0.707107   
     length 0.757437   
     axis -90 45 -6.68868e-015   XYZ
    dof rx rz
    limits (-45.0 45.0)
           (-45.0 45.0)
  end
  begin
     id 24 
     name rclavicle
     direction -0.902944 0.422599 -0.0781198   
     length 3.54432  
     axis 0 0 0   XYZ 
    dof ry rz
    limits (-10.0 20.0)
           (-20.0 0.0)
  end
  begin
     id 25 
     name rhumerus
     direction -1 -4.48953e-011 -4.75835e-028  
     length 5.09181   
     axis 180 30 90   XYZ
    dof rx ry rz
    limits (-90.0 60.0)
           (-90.0 90.0)
           (-90.0 90.0)
  end
  begin
     id 26 
     name rradius
     direction -1 -4.48986e-011 -3.25889e-027   
     length 3.49865   
     axis 180 30 90   XYZ
    dof rx
    limits (-10.0 170.0)
  end
  begin
     id 27 
     name rwrist
     direction -1 -4.48963e-011 1.45989e-027   
     length 1.74933   
     axis 1.49639e-024 -90 -90   XYZ
    dof ry
    limits (-180.0 0.0)
  end
  begin
     id 28
     name rhand
     direction -1 -4.49003e-011 2.91844e-027   
     length 0.66641   
     axis -1.863e-015 -90 -90   XYZ
    dof rx rz
    limits (-90.0 90.0)
           (-45.0 45.0)
  end
  begin
     id 29
     name rfingers
     direction -1 -4.48973e-011 5.83886e-027   
     length 0.537277   
     axis -3.72598e-015 -90 -90   XYZ
    dof rx
    limits (0.0 90.0)
  end
  begin
     id 30
     name rthumb
     direction -0.707107 -6.34976e-011 0.707107   
     length 0.771425   
     axis -90 -45 6.68868e-015   XYZ
    dof rx rz
    limits (-45.0 45.0)
           (-45.0 45.0)
  end
:hierarchy
  begin
    root lhipjoint rhipjoint lowerback
    lhipjoint lfemur
    lfemur ltibia
    ltibia lfoot
    lfoot ltoes
    rhipjoint rfemur
    rfemur rtibia
    rtibia rfoot
    rfoot rtoes
    lowerback upperback
    upperback thorax
    thorax lowerneck lclavicle rclavicle
    lowerneck upperneck
    upperneck head
    lclavicle lhumerus
    lhumerus lradius
    lradius lwrist
    lwrist lhand lthumb
    lhand lfingers
    rclavicle rhumerus
    rhumerus rradius
    rradius rwrist
    rwrist rhand rthumb
    rhand rfingers
  end

#!OML:ASF H:\LiuWeirdWalks\Patient Classification 1\Patient 1\Session 1\male.ASF
:FULLY-SPECIFIED
:DEGREES
97
root 0.324018 17.5257 -29.7948 6.76008 -1.40747 -2.15518
lowerback 4.42861 -0.785921 -0.27045
upperback -2.77331 -0.907683 3.30962
thorax -5.30695 -0.375335 3.67761
lowerneck -19.5423 3.36731 6.8512
upperneck 22.8357 4.97646 -8.95652
head 11.028 1.76756 -3.65601
rclavicle -5.1684e-015 1.90833e-014
rhumerus -40.0696 -7.62989 -77.0808
rradius 24.9356
rwrist -3.69838
rhand -16.8378 -4.85254
rfingers 7.12502
rthumb 9.39185 -34.6233
lclavicle -5.1684e-015 1.90833e-014
lhumerus -36.6499 3.67205 85.8599
lradius 29.7669
lwrist 10.7114
lhand -12.4456 0.10274
lfingers 7.12502
lthumb 13.6276 29.6367
rfemur -11.8371 -0.478092 24.3346
rtibia 34.9148
rfoot -23.7956 -21.0383
rtoes -3.87208
lfemur -9.71781 -0.556415 -12.7346
ltibia 32.8353
lfoot -18.369 18.457
ltoes -11.6987
98
root 0.303249 17.519 -29.7537 6.84091 -1.43135 -2.38467
lowerback 4.57111 -0.928343 -0.0650655
upperback -2.71473 -1.07221 3.54375
thorax -5.31627 -0.460319 3.82401
lowerneck -19.4567 3.61339 6.75532
upperneck 22.5686 5.39575 -9.15689
head 10.957 1.92994 -3.6415
rclavicle -8.44835e-015 6.36111e-015
rhumerus -39.9854 -6.90796 -77.0635
rradius 24.7641
rwrist -3.77532
rhand -16.7903 -4.90937
rfingers 7.12502
rthumb 9.43764 -34.6781
lclavicle -8.44835e-015 6.36111e-015
lhumerus -36.8534 4.20718 85.9252
lradius 30.2261
lwrist 10.8038
lhand -12.4829 -0.103646
lfingers 7.12502
lthumb 13.5916 29.4327
rfemur -11.7024 -0.449457 24.6642
rtibia 34.7634
rfoot -23.502 -21.1036
rtoes -3.47686
lfemur -10.1213 -0.396174 -12.3754
ltibia 33.7424
lfoot -18.3532 18.2957
ltoes -12.3087
99
root 0.282667 17.5129 -29.7119 6.91838 -1.43422 -2.62633
lowerback 4.72311 -0.9846 0.192555
upperback -2.6149 -1.12182 3.69766
thorax -5.29743 -0.492249 3.84608
lowerneck -19.5494 3.75241 6.71245
upperneck 22.3882 5.62516 -9.29592
head 10.9341 2.01332 -3.64475
rclavicle -2.08227e-014 -2.06736e-014
rhumerus -39.8764 -6.57026 -77.0059
rradius 24.5791
rwrist -3.78197
rhand -16.7518 -4.97196
rfingers 7.12502
rthumb 9.47483 -34.739
lclavicle -2.08227e-014 -2.06736e-014
lhumerus -36.9218 4.40347 86.0233
lradius 30.6749
lwrist 10.9004
lhand -12.5525 -0.344145
lfingers 7.12502
lthumb 13.5246 29.1967
rfemur -11.5433 -0.440622 25.0084
rtibia 34.579
rfoot -23.1964 -21.1534
rtoes -3.0971
lfemur -10.5653 -0.27294 -11.9946
ltibia 34.7306
lfoot -18.268 18.1049
ltoes -12.9841
100
root 0.262367 17.5081 -29.6683 6.99299 -1.42298 -2.86083
lowerback 4.87361 -0.90325 0.511391
upperback -2.51359 -0.989065 3.70629
thorax -5.29075 -0.438216 3.66427
lowerneck -19.687 3.69596 6.74696
upperneck 22.2691 5.51852 -9.30193
head 10.9076 1.96498 -3.66617
rclavicle 0 -5.56597e-015
rhumerus -39.8925 -6.8077 -76.8934
rradius 24.4058
rwrist -3.68445
rhand -16.7213 -5.08045
rfingers 7.12502
rthumb 9.50427 -34.8461
lclavicle 0 -5.56597e-015
lhumerus -36.918 4.03668 86.1471
lradius 31.1069
lwrist 11.0361
lhand -12.6527 -0.61655
lfingers 7.12502
lthumb 13.428 28.9307
rfemur -11.3571 -0.458159 25.3423
rtibia 34.3603
rfoot -22.9038 -21.1813
rtoes -2.7559
lfemur -11.0467 -0.199852 -11.616
ltibia 35.7949
lfoot -18.108 17.8935
ltoes -13.6971
101
root 0.241772 17.5044 -29.6233 7.06477 -1.41349 -3.09272
lowerback 5.00312 -0.714378 0.874373
upperback -2.38672 -0.715284 3.60457
thorax -5.253 -0.317915 3.3271
lowerneck -19.8855 3.50314 6.84447
upperneck 22.158 5.16684 -9.20134
head 10.8699 1.82181 -3.69745
rclavicle 0 7.15625e-015
rhumerus -39.9629 -7.47756 -76.7582
rradius 24.2449
rwrist -3.51052
rhand -16.7044 -5.2005
rfingers 7.12502
rthumb 9.52056 -34.9654
lclavicle 0 7.15625e-015
lhumerus -36.8141 3.26151 86.2782
lradius 31.5165
lwrist 11.2044
lhand -12.7997 -0.808507
lfingers 7.12502
lthumb 13.2863 28.748
rfemur -11.1466 -0.470836 25.6741
rtibia 34.1092
rfoot -22.638 -21.2087
rtoes -2.49875
lfemur -11.5677 -0.14591 -11.2306
ltibia 36.9361
lfoot -17.8756 17.641
ltoes -14.3861
102
root 0.220584 17.5021 -29.5771 7.14389 -1.38725 -3.31985
lowerback 5.12469 -0.524843 1.22197
upperback -2.30393 -0.440218 3.49857
thorax -5.25265 -0.195731 2.99455
lowerneck -19.8857 3.26082 6.90923
upperneck 21.9799 4.75438 -9.07147
head 10.7621 1.65691 -3.72011
rclavicle 1.36167e-014 -2.3059e-014
rhumerus -40.114 -8.17213 -76.5993
rradius 24.067
rwrist -3.28135
rhand -16.6934 -5.29423
rfingers 7.12502
rthumb 9.53118 -35.0587
lclavicle 1.36167e-014 -2.3059e-014
lhumerus -36.8009 2.46115 86.3955
lradius 31.9245
lwrist 11.3849
lhand -13.0013 -0.991801
lfingers 7.12502
lthumb 13.0919 28.5773
rfemur -10.925 -0.480467 26.0074
rtibia 33.8278
rfoot -22.4066 -21.2503
rtoes -2.33692
lfemur -12.1473 -0.122344 -10.8367
ltibia 38.1484
lfoot -17.5588 17.3498
ltoes -15.0816
103
root 0.199217 17.501 -29.529 7.21244 -1.35523 -3.53642
lowerback 5.26134 -0.268737 1.59327
upperback -2.24333 -0.0760101 3.31963
thorax -5.28287 -0.0312615 2.5639
lowerneck -19.8347 2.90855 7.00198
upperneck 21.8266 4.1658 -8.87301
head 10.6363 1.4225 -3.7491
rclavicle -4.17448e-015 -8.74653e-015
rhumerus -40.3702 -9.14524 -76.4
rradius 23.8809
rwrist -2.98521
rhand -16.6925 -5.36785
rfingers 7.12502
rthumb 9.53209 -35.1322
lclavicle -4.17448e-015 -8.74653e-015
lhumerus -36.7821 1.38759 86.5134
lradius 32.3008
lwrist 11.6432
lhand -13.2092 -1.1016
lfingers 7.12502
lthumb 12.8915 28.4802
rfemur -10.6719 -0.481346 26.3326
rtibia 33.5204
rfoot -22.2047 -21.3057
rtoes -2.28182
lfemur -12.7589 -0.10893 -10.4456
ltibia 39.4289
lfoot -17.1646 17.0127
ltoes -15.7927
104
root 0.177525 17.5013 -29.48 7.29275 -1.31384 -3.73562
lowerback 5.38178 -0.249518 1.80045
upperback -2.2133 -0.0275849 3.39156
thorax -5.32231 -0.013059 2.51868
lowerneck -19.5693 2.85477 6.93972
upperneck 21.554 4.1135 -8.90055
head 10.4812 1.39792 -3.74887
rclavicle 1.49089e-015 -2.22639e-014
rhumerus -40.4197 -9.19304 -76.2399
rradius 23.607
rwrist -2.74074
rhand -16.7011 -5.4229
rfingers 7.12502
rthumb 9.52379 -35.1877
lclavicle 1.49089e-015 -2.22639e-014
lhumerus -36.9599 1.29736 86.5954
lradius 32.7037
lwrist 11.8214
lhand -13.4034 -1.22571
lfingers 7.12502
lthumb 12.7043 28.3678
rfemur -10.4188 -0.464463 26.6457
rtibia 33.1889
rfoot -22.0176 -21.3873
rtoes -2.33278
lfemur -13.4313 -0.108209 -10.0635
ltibia 40.7667
lfoot -16.6812 16.6266
ltoes -16.5415
105
root 0.156482 17.5028 -29.429 7.38207 -1.29722 -3.92111
lowerback 5.49102 -0.209774 1.99508
upperback -2.18758 0.047074 3.45315
thorax -5.36039 0.0183408 2.46696
lowerneck -19.3114 2.78663 6.87747
upperneck 21.302 4.03973 -8.92164
head 10.3335 1.36409 -3.74997
rclavicle -3.8266e-015 -1.59028e-015
rhumerus -40.4574 -9.33759 -76.031
rradius 23.2772
rwrist -2.41247
rhand -16.7231 -5.43394
rfingers 7.12502
rthumb 9.50257 -35.1997
lclavicle -3.8266e-015 -1.59028e-015
lhumerus -37.1201 1.18666 86.6795
lradius 33.0654
lwrist 12.0341
lhand -13.5941 -1.33242
lfingers 7.12502
lthumb 12.5205 28.2725
rfemur -10.1625 -0.425416 26.939
rtibia 32.8396
rfoot -21.8263 -21.4683
rtoes -2.46267
lfemur -14.1442 -0.0973212 -9.69895
ltibia 42.153
lfoot -16.1106 16.2112
ltoes -17.3241
106
root 0.135987 17.5058 -29.3753 7.46784 -1.28575 -4.07732
lowerback 5.59481 -0.155433 2.16993
upperback -2.16516 0.139037 3.49381
thorax -5.39884 0.0585564 2.40253
lowerneck -19.0587 2.72114 6.84836
upperneck 21.0398 3.95912 -8.94649
head 10.184 1.32946 -3.75869
rclavicle 2.68359e-015 -1.59028e-014
rhumerus -40.5026 -9.56005 -75.7982
rradius 22.9233
rwrist -2.03126
rhand -16.7583 -5.43106
rfingers 7.12502
rthumb 9.46859 -35.1983
lclavicle 2.68359e-015 -1.59028e-014
lhumerus -37.2699 1.03995 86.7563
lradius 33.3768
lwrist 12.2721
lhand -13.7646 -1.41627
lfingers 7.12502
lthumb 12.3561 28.1986
rfemur -9.8851 -0.379676 27.1974
rtibia 32.4757
rfoot -21.628 -21.5534
rtoes -2.65296
lfemur -14.8836 -0.0975457 -9.36817
ltibia 43.572
lfoot -15.4295 15.7674
ltoes -18.1624
